<?xml version="1.0" encoding="UTF-8" standalone="no"?>
<!DOCTYPE svg PUBLIC "-//W3C//DTD SVG 1.1//EN" "http://www.w3.org/Graphics/SVG/1.1/DTD/svg11.dtd">
<svg width="1032px" height="169px" version="1.1" xmlns="http://www.w3.org/2000/svg" xmlns:xlink="http://www.w3.org/1999/xlink" xml:space="preserve" xmlns:serif="http://www.serif.com/" style="fill-rule:evenodd;clip-rule:evenodd;stroke-linejoin:round;stroke-miterlimit:2;">
    <g transform="matrix(1,0,0,1,-333.201,-142.506)">
        <g>
            <g transform="matrix(1,0,0,1,-18,11)">
                <g transform="matrix(0.974492,0,0,0.974492,22.1046,8.54356)">
                    <g transform="matrix(0.832898,0,0,0.832898,8.47602,-77.9089)">
                        <text x="398.87px" y="345.23px" style="font-family:'Helvetica-Bold', 'Helvetica';font-weight:700;font-size:129.037px;fill:rgb(19,167,160);">Auto-Group-Console</text>
                    </g>
                    <g transform="matrix(1.16763,0,0,1.16763,-60.3063,-82.9014)">
                        <g transform="matrix(52.4802,0,0,52.4802,1251.56,310.063)">
                        </g>
                        <text x="346.648px" y="310.063px" style="font-family:'BradleyHandITCTT-Bold', 'Bradley Hand';font-weight:700;font-size:52.48px;fill:rgb(19,167,160);">Automagically group console messages</text>
                    </g>
                </g>
                <g transform="matrix(0.974492,0,0,0.974492,18.1046,4.54356)">
                    <g transform="matrix(0.832898,0,0,0.832898,8.47602,-77.9089)">
                        <text x="398.87px" y="345.23px" style="font-family:'Helvetica-Bold', 'Helvetica';font-weight:700;font-size:129.037px;fill:rgb(245,255,253);">Auto-Group-Console</text>
                    </g>
                    <g transform="matrix(1.16763,0,0,1.16763,-60.3063,-82.9014)">
                        <g transform="matrix(52.4802,0,0,52.4802,1251.56,310.063)">
                        </g>
                        <text x="346.648px" y="310.063px" style="font-family:'BradleyHandITCTT-Bold', 'Bradley Hand';font-weight:700;font-size:52.48px;fill:rgb(245,255,253);">Automagically group console messages</text>
                    </g>
                </g>
            </g>
        </g>
    </g>
</svg>
